<?xml version="1.0" standalone="no"?><!DOCTYPE svg PUBLIC "-//W3C//DTD SVG 1.1//EN" "http://www.w3.org/Graphics/SVG/1.1/DTD/svg11.dtd"><svg t="1516839929002" class="icon" style="" viewBox="0 0 1024 1024" version="1.1" xmlns="http://www.w3.org/2000/svg" p-id="2301" xmlns:xlink="http://www.w3.org/1999/xlink" width="128" height="128"><defs><style type="text/css"></style></defs><path d="M512 512m-445 0a445 445 0 1 0 890 0 445 445 0 1 0-890 0Z" fill="#E6F3FF" p-id="2302"></path><path d="M665.2 350.9l-144-37.9c-3.4-0.9-7-0.8-10.4 0.2L356.9 360c-7.7 2.3-13 9.2-13.4 17.2-3.1 57.4-4 283.1 165.6 349.7 4.4 1.7 9.4 1.7 13.8 0 169.8-67 161.4-300.4 156.5-359.1-0.7-8.1-6.4-14.8-14.2-16.9z" fill="#148AF4" p-id="2303"></path><path d="M515.9 491.7m-90.8 0a90.8 90.8 0 1 0 181.6 0 90.8 90.8 0 1 0-181.6 0Z" fill="#22D0FF" p-id="2304"></path><path d="M546 463c0-16.6-13.5-30.1-30.1-30.1s-30.1 13.5-30.1 30.1c0 13.1 8.4 24.2 20 28.3v21.8h10v5h-10v10h10v5h-10v10l10 10 10-10v-51.9c11.8-4 20.2-15.1 20.2-28.2z m-30.1 10c-5.5 0-10-4.5-10-10s4.5-10 10-10 10 4.5 10 10c0.1 5.5-4.4 10-10 10z" fill="#148AF4" p-id="2305"></path></svg>